mtllib materials.mtl
v 0.4035715 0.007142842 -0.03999996
v -0.4364284 0.007142842 -0.0399999
v -0.4364284 0.02714282 -0.0399999
v 0.4035715 0.02714282 -0.03999993
v 0.4035715 0.007142842 -0.05999994
v 0.4035715 0.02714282 -0.05999994
v -0.4364284 0.02714282 -0.05999988
v -0.4364284 0.007142842 -0.05999991
v 0.4035715 0.007142842 0.06000003
v -0.4364284 0.007142842 0.06000009
v -0.4364284 0.02714282 0.06000009
v 0.4035715 0.02714282 0.06000003
v 0.4035715 0.007142842 0.04000005
v 0.4035715 0.02714282 0.04000005
v -0.4364284 0.02714282 0.04000011
v -0.4364284 0.007142842 0.04000011
v 0.3385714 -0.0128572 0.105
v 0.3385714 -0.01285726 -0.105
v 0.3385714 0.007142782 -0.105
v 0.3385714 0.007142842 0.105
v 0.3585714 -0.0128572 0.105
v 0.3585714 0.007142842 0.105
v 0.3585714 0.007142782 -0.105
v 0.3585714 -0.01285726 -0.105
v 0.2785714 -0.01285714 0.105
v 0.2785714 -0.0128572 -0.105
v 0.2785714 0.007142842 -0.105
v 0.2785714 0.007142901 0.105
v 0.2985713 -0.01285714 0.105
v 0.2985713 0.007142901 0.105
v 0.2985713 0.007142842 -0.105
v 0.2985713 -0.0128572 -0.105
v 0.1585714 -0.01285714 0.105
v 0.1585714 -0.0128572 -0.105
v 0.1585714 0.007142842 -0.105
v 0.1585714 0.007142901 0.105
v 0.1785714 -0.01285714 0.105
v 0.1785714 0.007142901 0.105
v 0.1785714 0.007142842 -0.105
v 0.1785714 -0.0128572 -0.105
v 0.03857154 -0.01285714 0.105
v 0.03857151 -0.0128572 -0.1049999
v 0.03857151 0.007142842 -0.1049999
v 0.03857154 0.007142901 0.105
v 0.05857155 -0.01285714 0.105
v 0.05857155 0.007142901 0.105
v 0.05857152 0.007142842 -0.1049999
v 0.05857152 -0.0128572 -0.1049999
v -0.1014286 -0.01285714 0.105
v -0.1014286 -0.0128572 -0.105
v -0.1014286 0.007142842 -0.105
v -0.1014286 0.007142901 0.105
v -0.08142857 -0.01285714 0.105
v -0.08142857 0.007142901 0.105
v -0.08142859 0.007142842 -0.105
v -0.08142859 -0.0128572 -0.105
v -0.2314286 -0.0128572 0.105
v -0.2314286 -0.01285726 -0.105
v -0.2314286 0.007142782 -0.105
v -0.2314286 0.007142842 0.105
v -0.2114286 -0.0128572 0.105
v -0.2114286 0.007142842 0.105
v -0.2114286 0.007142782 -0.105
v -0.2114286 -0.01285726 -0.105
v -0.3014286 -0.01285708 0.105
v -0.3014286 -0.01285714 -0.1049999
v -0.3014286 0.007142901 -0.1049999
v -0.3014286 0.007142961 0.105
v -0.2814285 -0.01285708 0.105
v -0.2814285 0.007142961 0.105
v -0.2814286 0.007142901 -0.1049999
v -0.2814286 -0.01285714 -0.1049999
v -0.3914285 -0.01285708 0.1050001
v -0.3914285 -0.01285714 -0.1049999
v -0.3914285 0.007142901 -0.1049999
v -0.3914285 0.007142961 0.1050001
v -0.3714285 -0.01285708 0.1050001
v -0.3714285 0.007142961 0.1050001
v -0.3714285 0.007142901 -0.1049999
v -0.3714285 -0.01285714 -0.1049999
v -0.03142858 -0.01285714 0.1050001
v -0.03142859 -0.0128572 -0.1049999
v -0.03142859 0.007142842 -0.1049999
v -0.03142858 0.007142901 0.1050001
v -0.01142856 -0.01285714 0.1050001
v -0.01142856 0.007142901 0.1050001
v -0.01142859 0.007142842 -0.1049999
v -0.01142859 -0.0128572 -0.1049999
v 0.2185714 -0.01285714 0.105
v 0.2185713 -0.0128572 -0.105
v 0.2185713 0.007142842 -0.105
v 0.2185714 0.007142901 0.105
v 0.2385713 -0.01285714 0.105
v 0.2385713 0.007142901 0.105
v 0.2385713 0.007142842 -0.105
v 0.2385713 -0.0128572 -0.105
v 0.09857139 -0.01285714 0.105
v 0.09857136 -0.0128572 -0.105
v 0.09857136 0.007142842 -0.105
v 0.09857139 0.007142901 0.105
v 0.1185714 -0.01285714 0.105
v 0.1185714 0.007142901 0.105
v 0.1185714 0.007142842 -0.105
v 0.1185714 -0.0128572 -0.105
v -0.1614286 -0.01285714 0.105
v -0.1614286 -0.0128572 -0.105
v -0.1614286 0.007142842 -0.105
v -0.1614286 0.007142901 0.105
v -0.1414286 -0.01285714 0.105
v -0.1414286 0.007142901 0.105
v -0.1414286 0.007142842 -0.105
v -0.1414286 -0.0128572 -0.105
vn 5.960464E-08 -1.698555E-07 1
vn -5.960464E-08 1.698555E-07 -1
vn 9.995091E-09 -1 -1.788139E-07
vn -9.995091E-09 1 1.788139E-07
vn 1 1.02266E-08 -4.35859E-07
vn -1 -1.02266E-08 4.35859E-07
vn 5.960464E-08 -1.698555E-07 1
vn -5.960464E-08 1.698555E-07 -1
vn 9.995091E-09 -1 -1.788139E-07
vn -9.995091E-09 1 1.788139E-07
vn 1 1.02266E-08 -4.35859E-07
vn -1 -1.02266E-08 4.35859E-07
vn -1 8.958473E-09 5.960461E-08
vn 1 -8.958473E-09 -5.960461E-08
vn -1.959511E-14 -1 2.970974E-07
vn 1.959511E-14 1 -2.970974E-07
vn 1.536682E-07 2.980232E-07 1
vn -1.536682E-07 -2.980232E-07 -1
vn -1 8.958473E-09 5.960461E-08
vn 1 -8.958473E-09 -5.960461E-08
vn -1.959511E-14 -1 2.970974E-07
vn 1.959511E-14 1 -2.970974E-07
vn 1.536682E-07 2.980232E-07 1
vn -1.536682E-07 -2.980232E-07 -1
vn -1 8.958473E-09 5.960461E-08
vn 1 -8.958473E-09 -5.960461E-08
vn -1.959511E-14 -1 2.970974E-07
vn 1.959511E-14 1 -2.970974E-07
vn 1.536682E-07 2.980232E-07 1
vn -1.536682E-07 -2.980232E-07 -1
vn -1 8.958473E-09 5.960461E-08
vn 1 -8.958473E-09 -5.960461E-08
vn -1.959511E-14 -1 2.970974E-07
vn 1.959511E-14 1 -2.970974E-07
vn 1.536682E-07 2.980232E-07 1
vn -1.536682E-07 -2.980232E-07 -1
vn -1 8.958473E-09 5.960461E-08
vn 1 -8.958473E-09 -5.960461E-08
vn -1.959511E-14 -1 2.970974E-07
vn 1.959511E-14 1 -2.970974E-07
vn 1.536682E-07 2.980232E-07 1
vn -1.536682E-07 -2.980232E-07 -1
vn -1 8.958473E-09 5.960461E-08
vn 1 -8.958473E-09 -5.960461E-08
vn -1.959511E-14 -1 2.970974E-07
vn 1.959511E-14 1 -2.970974E-07
vn 1.536682E-07 2.980232E-07 1
vn -1.536682E-07 -2.980232E-07 -1
vn -1 8.958473E-09 5.960461E-08
vn 1 -8.958473E-09 -5.960461E-08
vn -1.959511E-14 -1 2.970974E-07
vn 1.959511E-14 1 -2.970974E-07
vn 1.536682E-07 2.980232E-07 1
vn -1.536682E-07 -2.980232E-07 -1
vn -1 8.958473E-09 5.960461E-08
vn 1 -8.958473E-09 -5.960461E-08
vn -1.959511E-14 -1 2.970974E-07
vn 1.959511E-14 1 -2.970974E-07
vn 1.536682E-07 2.980232E-07 1
vn -1.536682E-07 -2.980232E-07 -1
vn -1 8.958473E-09 5.960461E-08
vn 1 -8.958473E-09 -5.960461E-08
vn -1.959511E-14 -1 2.970974E-07
vn 1.959511E-14 1 -2.970974E-07
vn 1.536682E-07 2.980232E-07 1
vn -1.536682E-07 -2.980232E-07 -1
vn -1 8.958473E-09 5.960461E-08
vn 1 -8.958473E-09 -5.960461E-08
vn -1.959511E-14 -1 2.970974E-07
vn 1.959511E-14 1 -2.970974E-07
vn 1.536682E-07 2.980232E-07 1
vn -1.536682E-07 -2.980232E-07 -1
vn -1 8.958473E-09 5.960461E-08
vn 1 -8.958473E-09 -5.960461E-08
vn -1.959511E-14 -1 2.970974E-07
vn 1.959511E-14 1 -2.970974E-07
vn 1.536682E-07 2.980232E-07 1
vn -1.536682E-07 -2.980232E-07 -1
vn -1 8.958473E-09 5.960461E-08
vn 1 -8.958473E-09 -5.960461E-08
vn -1.959511E-14 -1 2.970974E-07
vn 1.959511E-14 1 -2.970974E-07
vn 1.536682E-07 2.980232E-07 1
vn -1.536682E-07 -2.980232E-07 -1
vt 0.03108135 0.092126
vt 0.06864729 0.01699413
vt 0.07043614 0.01788855
vt 0.03287021 0.09302043
vt -0.03108135 0.092126
vt -0.03287021 0.09302043
vt -0.07043614 0.01788855
vt -0.06864729 0.01699413
vt 0.05976697 0.05139221
vt 0.05788349 0.05206488
vt 0.02963123 -0.02704143
vt 0.03151471 -0.0277141
vt -0.05976697 0.05139221
vt -0.03151471 -0.0277141
vt -0.02963123 -0.02704143
vt -0.05788349 0.05206488
vt 0.07184105 0.03347934
vt 0.07300352 0.03510681
vt 0.07137605 0.03626928
vt 0.07021357 0.03464182
vt -0.07184102 0.03347936
vt -0.07021355 0.03464184
vt -0.07137603 0.0362693
vt -0.07300349 0.03510683
vt 0.03108136 0.092126
vt 0.06864729 0.01699413
vt 0.07043614 0.01788855
vt 0.03287021 0.09302043
vt -0.03108135 0.092126
vt -0.03287021 0.09302043
vt -0.07043614 0.01788855
vt -0.06864729 0.01699413
vt 0.06918439 0.04802885
vt 0.0673009 0.04870152
vt 0.03904865 -0.0304048
vt 0.04093213 -0.03107747
vt -0.06918439 0.04802885
vt -0.04093213 -0.03107747
vt -0.03904865 -0.0304048
vt -0.0673009 0.04870152
vt 0.07997838 0.02766697
vt 0.08114085 0.02929443
vt 0.07951339 0.03045691
vt 0.07835092 0.02882944
vt -0.07997835 0.02766699
vt -0.07835089 0.02882946
vt -0.07951336 0.03045692
vt -0.08114083 0.02929445
vt -0.0824777 0.0234239
vt -0.06538929 0.0356299
vt -0.06655176 0.03725737
vt -0.08364017 0.02505138
vt 0.0824777 0.0234239
vt 0.08364017 0.02505138
vt 0.06655176 0.03725737
vt 0.06538929 0.0356299
vt 0.07123606 0.040394
vt 0.07190873 0.04227749
vt 0.05213215 0.04934055
vt 0.05145947 0.04745707
vt -0.07123606 0.040394
vt -0.05145947 0.04745707
vt -0.05213215 0.04934055
vt -0.07190873 0.04227749
vt 0.03219936 0.08541778
vt 0.03398822 0.08631221
vt 0.03309379 0.08810107
vt 0.03130493 0.08720664
vt -0.03219936 0.08541779
vt -0.03130493 0.08720664
vt -0.03309379 0.08810107
vt -0.03398822 0.08631222
vt -0.0824777 0.02342391
vt -0.06538929 0.03562991
vt -0.06655177 0.03725738
vt -0.08364017 0.02505138
vt 0.0824777 0.02342391
vt 0.08364017 0.02505138
vt 0.06655177 0.03725738
vt 0.06538929 0.03562991
vt 0.06921803 0.03474355
vt 0.06989071 0.03662703
vt 0.05011413 0.04369009
vt 0.04944145 0.04180661
vt -0.06921803 0.03474355
vt -0.04944145 0.04180661
vt -0.05011413 0.04369009
vt -0.06989071 0.03662703
vt 0.03488265 0.08005122
vt 0.03667151 0.08094565
vt 0.03577708 0.0827345
vt 0.03398822 0.08184007
vt -0.03488265 0.08005122
vt -0.03398822 0.08184008
vt -0.03577708 0.0827345
vt -0.03667151 0.08094566
vt -0.0824777 0.02342391
vt -0.06538929 0.03562991
vt -0.06655177 0.03725738
vt -0.08364017 0.02505138
vt 0.0824777 0.02342391
vt 0.08364017 0.02505138
vt 0.06655177 0.03725738
vt 0.06538929 0.03562991
vt 0.065182 0.02344265
vt 0.06585468 0.02532613
vt 0.04607809 0.03238919
vt 0.04540542 0.03050571
vt -0.065182 0.02344265
vt -0.04540542 0.03050571
vt -0.04607809 0.03238919
vt -0.06585468 0.02532613
vt 0.04024921 0.06931809
vt 0.04203807 0.07021253
vt 0.04114364 0.07200138
vt 0.03935479 0.07110695
vt -0.04024921 0.06931809
vt -0.03935479 0.07110696
vt -0.04114364 0.07200138
vt -0.04203807 0.07021253
vt -0.0824777 0.02342391
vt -0.06538929 0.0356299
vt -0.06655177 0.03725737
vt -0.08364017 0.02505138
vt 0.0824777 0.02342391
vt 0.08364017 0.02505138
vt 0.06655177 0.03725737
vt 0.06538929 0.0356299
vt 0.06114597 0.01214176
vt 0.06181865 0.01402524
vt 0.04204207 0.0210883
vt 0.04136939 0.01920481
vt -0.06114597 0.01214176
vt -0.0413694 0.01920481
vt -0.04204207 0.0210883
vt -0.06181865 0.01402524
vt 0.04561577 0.05858498
vt 0.04740463 0.05947941
vt 0.0465102 0.06126826
vt 0.04472134 0.06037384
vt -0.04561577 0.05858498
vt -0.04472134 0.06037384
vt -0.0465102 0.06126826
vt -0.04740463 0.05947941
vt -0.0824777 0.02342391
vt -0.06538929 0.03562991
vt -0.06655177 0.03725737
vt -0.08364017 0.02505138
vt 0.0824777 0.02342391
vt 0.08364017 0.02505138
vt 0.06655177 0.03725737
vt 0.06538929 0.03562991
vt 0.05643727 -0.001042641
vt 0.05710993 0.0008408424
vt 0.03733335 0.007903903
vt 0.03666068 0.00602042
vt -0.05643727 -0.001042641
vt -0.03666068 0.00602042
vt -0.03733335 0.007903903
vt -0.05710993 0.0008408421
vt 0.05187676 0.04606299
vt 0.05366563 0.04695742
vt 0.0527712 0.04874627
vt 0.05098234 0.04785185
vt -0.05187676 0.04606299
vt -0.05098234 0.04785185
vt -0.0527712 0.04874628
vt -0.05366563 0.04695742
vt -0.0824777 0.0234239
vt -0.06538929 0.0356299
vt -0.06655176 0.03725737
vt -0.08364017 0.02505137
vt 0.0824777 0.0234239
vt 0.08364017 0.02505137
vt 0.06655176 0.03725737
vt 0.06538929 0.0356299
vt 0.05206489 -0.01328529
vt 0.05273756 -0.0114018
vt 0.03296098 -0.004338742
vt 0.03228831 -0.006222225
vt -0.05206489 -0.01328529
vt -0.03228831 -0.006222225
vt -0.03296098 -0.004338742
vt -0.05273756 -0.0114018
vt 0.05769054 0.03443544
vt 0.0594794 0.03532986
vt 0.05858497 0.03711872
vt 0.05679611 0.03622429
vt -0.05769054 0.03443544
vt -0.05679611 0.03622429
vt -0.05858497 0.03711872
vt -0.0594794 0.03532987
vt -0.0824777 0.02342391
vt -0.06538929 0.03562991
vt -0.06655177 0.03725738
vt -0.08364018 0.02505138
vt 0.0824777 0.02342391
vt 0.08364018 0.02505138
vt 0.06655177 0.03725738
vt 0.06538929 0.03562991
vt 0.04971054 -0.01987748
vt 0.05038321 -0.017994
vt 0.03060663 -0.01093093
vt 0.02993396 -0.01281442
vt -0.04971054 -0.01987748
vt -0.02993396 -0.01281442
vt -0.03060663 -0.01093093
vt -0.05038321 -0.017994
vt 0.06082105 0.02817445
vt 0.0626099 0.02906888
vt 0.06171547 0.03085773
vt 0.05992662 0.02996331
vt -0.06082105 0.02817445
vt -0.05992662 0.02996331
vt -0.06171547 0.03085774
vt -0.0626099 0.02906888
vt -0.0824777 0.02342391
vt -0.0653893 0.03562991
vt -0.06655178 0.03725738
vt -0.08364018 0.02505138
vt 0.0824777 0.02342391
vt 0.08364018 0.02505138
vt 0.06655178 0.03725738
vt 0.0653893 0.03562991
vt 0.04668352 -0.02835315
vt 0.04735619 -0.02646967
vt 0.02757961 -0.01940661
vt 0.02690694 -0.0212901
vt -0.04668352 -0.02835315
vt -0.02690694 -0.0212901
vt -0.02757961 -0.01940661
vt -0.04735619 -0.02646967
vt 0.06484596 0.02012461
vt 0.06663482 0.02101904
vt 0.06574039 0.02280789
vt 0.06395154 0.02191346
vt -0.06484596 0.02012461
vt -0.06395154 0.02191347
vt -0.06574039 0.02280789
vt -0.06663482 0.02101904
vt -0.0824777 0.0234239
vt -0.06538929 0.0356299
vt -0.06655177 0.03725737
vt -0.08364018 0.02505137
vt 0.0824777 0.0234239
vt 0.08364018 0.02505137
vt 0.06655177 0.03725737
vt 0.06538929 0.0356299
vt 0.05879162 0.00554955
vt 0.05946429 0.007433034
vt 0.03968772 0.01449609
vt 0.03901504 0.01261261
vt -0.05879163 0.00554955
vt -0.03901504 0.01261261
vt -0.03968772 0.01449609
vt -0.05946429 0.007433034
vt 0.04874627 0.05232398
vt 0.05053513 0.05321841
vt 0.0496407 0.05500727
vt 0.04785184 0.05411283
vt -0.04874627 0.05232398
vt -0.04785184 0.05411283
vt -0.0496407 0.05500727
vt -0.05053513 0.05321841
vt -0.0824777 0.02342391
vt -0.06538929 0.03562991
vt -0.06655177 0.03725738
vt -0.08364017 0.02505138
vt 0.0824777 0.02342391
vt 0.08364017 0.02505138
vt 0.06655177 0.03725738
vt 0.06538929 0.03562991
vt 0.06720002 0.0290931
vt 0.06787269 0.03097658
vt 0.04809611 0.03803964
vt 0.04742343 0.03615616
vt -0.06720002 0.0290931
vt -0.04742343 0.03615616
vt -0.04809611 0.03803964
vt -0.06787269 0.03097658
vt 0.03756593 0.07468466
vt 0.03935479 0.07557908
vt 0.03846037 0.07736794
vt 0.0366715 0.0764735
vt -0.03756593 0.07468466
vt -0.0366715 0.07647351
vt -0.03846036 0.07736794
vt -0.03935479 0.07557908
vt -0.0824777 0.02342391
vt -0.06538929 0.03562991
vt -0.06655177 0.03725738
vt -0.08364017 0.02505138
vt 0.0824777 0.02342391
vt 0.08364017 0.02505138
vt 0.06655177 0.03725738
vt 0.06538929 0.03562991
vt 0.06316398 0.0177922
vt 0.06383665 0.01967568
vt 0.04406007 0.02673874
vt 0.0433874 0.02485525
vt -0.06316398 0.0177922
vt -0.0433874 0.02485525
vt -0.04406007 0.02673874
vt -0.06383666 0.01967568
vt 0.0429325 0.06395153
vt 0.04472135 0.06484596
vt 0.04382693 0.06663482
vt 0.04203807 0.06574039
vt -0.0429325 0.06395153
vt -0.04203807 0.06574039
vt -0.04382693 0.06663482
vt -0.04472135 0.06484596
vt -0.0824777 0.02342391
vt -0.06538929 0.03562991
vt -0.06655177 0.03725737
vt -0.08364017 0.02505138
vt 0.0824777 0.02342391
vt 0.08364017 0.02505138
vt 0.06655177 0.03725737
vt 0.06538929 0.03562991
vt 0.05441924 -0.006693093
vt 0.05509192 -0.00480961
vt 0.03531533 0.002253451
vt 0.03464266 0.0003699678
vt -0.05441924 -0.006693094
vt -0.03464266 0.0003699676
vt -0.03531533 0.002253451
vt -0.05509192 -0.00480961
vt 0.05456005 0.04069643
vt 0.05634891 0.04159086
vt 0.05545448 0.04337971
vt 0.05366562 0.04248528
vt -0.05456005 0.04069643
vt -0.05366562 0.04248528
vt -0.05545448 0.04337971
vt -0.05634891 0.04159086
o group1953912944
g mesh1953912944
usemtl mat22
f 4/4/1 3/3/1 2/2/1 1/1/1
f 8/8/2 7/7/2 6/6/2 5/5/2
f 2/12/3 8/11/3 5/10/3 1/9/3
f 6/16/4 7/15/4 3/14/4 4/13/4
f 5/20/5 6/19/5 4/18/5 1/17/5
f 3/24/6 7/23/6 8/22/6 2/21/6
f 12/28/7 11/27/7 10/26/7 9/25/7
f 16/32/8 15/31/8 14/30/8 13/29/8
f 10/36/9 16/35/9 13/34/9 9/33/9
f 14/40/10 15/39/10 11/38/10 12/37/10
f 13/44/11 14/43/11 12/42/11 9/41/11
f 11/48/12 15/47/12 16/46/12 10/45/12
usemtl mat20
f 20/52/13 19/51/13 18/50/13 17/49/13
f 24/56/14 23/55/14 22/54/14 21/53/14
f 18/60/15 24/59/15 21/58/15 17/57/15
f 22/64/16 23/63/16 19/62/16 20/61/16
f 21/68/17 22/67/17 20/66/17 17/65/17
f 19/72/18 23/71/18 24/70/18 18/69/18
f 28/76/19 27/75/19 26/74/19 25/73/19
f 32/80/20 31/79/20 30/78/20 29/77/20
f 26/84/21 32/83/21 29/82/21 25/81/21
f 30/88/22 31/87/22 27/86/22 28/85/22
f 29/92/23 30/91/23 28/90/23 25/89/23
f 27/96/24 31/95/24 32/94/24 26/93/24
f 36/100/25 35/99/25 34/98/25 33/97/25
f 40/104/26 39/103/26 38/102/26 37/101/26
f 34/108/27 40/107/27 37/106/27 33/105/27
f 38/112/28 39/111/28 35/110/28 36/109/28
f 37/116/29 38/115/29 36/114/29 33/113/29
f 35/120/30 39/119/30 40/118/30 34/117/30
f 44/124/31 43/123/31 42/122/31 41/121/31
f 48/128/32 47/127/32 46/126/32 45/125/32
f 42/132/33 48/131/33 45/130/33 41/129/33
f 46/136/34 47/135/34 43/134/34 44/133/34
f 45/140/35 46/139/35 44/138/35 41/137/35
f 43/144/36 47/143/36 48/142/36 42/141/36
f 52/148/37 51/147/37 50/146/37 49/145/37
f 56/152/38 55/151/38 54/150/38 53/149/38
f 50/156/39 56/155/39 53/154/39 49/153/39
f 54/160/40 55/159/40 51/158/40 52/157/40
f 53/164/41 54/163/41 52/162/41 49/161/41
f 51/168/42 55/167/42 56/166/42 50/165/42
f 60/172/43 59/171/43 58/170/43 57/169/43
f 64/176/44 63/175/44 62/174/44 61/173/44
f 58/180/45 64/179/45 61/178/45 57/177/45
f 62/184/46 63/183/46 59/182/46 60/181/46
f 61/188/47 62/187/47 60/186/47 57/185/47
f 59/192/48 63/191/48 64/190/48 58/189/48
f 68/196/49 67/195/49 66/194/49 65/193/49
f 72/200/50 71/199/50 70/198/50 69/197/50
f 66/204/51 72/203/51 69/202/51 65/201/51
f 70/208/52 71/207/52 67/206/52 68/205/52
f 69/212/53 70/211/53 68/210/53 65/209/53
f 67/216/54 71/215/54 72/214/54 66/213/54
f 76/220/55 75/219/55 74/218/55 73/217/55
f 80/224/56 79/223/56 78/222/56 77/221/56
f 74/228/57 80/227/57 77/226/57 73/225/57
f 78/232/58 79/231/58 75/230/58 76/229/58
f 77/236/59 78/235/59 76/234/59 73/233/59
f 75/240/60 79/239/60 80/238/60 74/237/60
f 84/244/61 83/243/61 82/242/61 81/241/61
f 88/248/62 87/247/62 86/246/62 85/245/62
f 82/252/63 88/251/63 85/250/63 81/249/63
f 86/256/64 87/255/64 83/254/64 84/253/64
f 85/260/65 86/259/65 84/258/65 81/257/65
f 83/264/66 87/263/66 88/262/66 82/261/66
f 92/268/67 91/267/67 90/266/67 89/265/67
f 96/272/68 95/271/68 94/270/68 93/269/68
f 90/276/69 96/275/69 93/274/69 89/273/69
f 94/280/70 95/279/70 91/278/70 92/277/70
f 93/284/71 94/283/71 92/282/71 89/281/71
f 91/288/72 95/287/72 96/286/72 90/285/72
f 100/292/73 99/291/73 98/290/73 97/289/73
f 104/296/74 103/295/74 102/294/74 101/293/74
f 98/300/75 104/299/75 101/298/75 97/297/75
f 102/304/76 103/303/76 99/302/76 100/301/76
f 101/308/77 102/307/77 100/306/77 97/305/77
f 99/312/78 103/311/78 104/310/78 98/309/78
f 108/316/79 107/315/79 106/314/79 105/313/79
f 112/320/80 111/319/80 110/318/80 109/317/80
f 106/324/81 112/323/81 109/322/81 105/321/81
f 110/328/82 111/327/82 107/326/82 108/325/82
f 109/332/83 110/331/83 108/330/83 105/329/83
f 107/336/84 111/335/84 112/334/84 106/333/84
