# Blender v2.78 (sub 0) OBJ File: '4.blend'
# www.blender.org
mtllib Door_01.mtl
o door_Cube.030
v -0.400944 5.111109 1.806029
v -0.400944 5.050916 1.660710
v -0.400944 4.905596 1.600516
v -0.400944 4.760278 1.660710
v -0.400944 4.700085 1.806029
v -0.400944 4.760278 1.951348
v -0.400944 4.905596 2.011541
v -0.400944 5.050916 1.951348
v -0.554724 5.111109 1.806029
v -0.554724 5.050916 1.660710
v -0.554724 4.905596 1.600516
v -0.554724 4.760278 1.660710
v -0.554724 4.700085 1.806029
v -0.554724 4.760278 1.951348
v -0.554724 4.905596 2.011541
v -0.554724 5.050916 1.951348
v -0.575228 4.979247 1.806029
v -0.575228 4.957675 1.753950
v -0.575228 4.905596 1.732379
v -0.575228 4.853518 1.753950
v -0.575228 4.831947 1.806029
v -0.575228 4.853518 1.858107
v -0.575228 4.905596 1.879678
v -0.575228 4.957675 1.858107
v -0.575228 4.905596 1.806029
v -0.378409 4.905596 1.895800
v -0.378409 4.842119 1.869507
v -0.378409 4.815825 1.806029
v -0.378409 4.842119 1.742550
v -0.378409 4.905596 1.716257
v -0.378409 4.969075 1.742550
v -0.378409 4.995368 1.806029
v -0.378410 4.969075 1.869507
v -0.280278 4.905596 1.895800
v -0.280278 4.842119 1.869507
v -0.280278 4.815825 1.806029
v -0.280278 4.842119 1.742550
v -0.280278 4.905596 1.716257
v -0.280278 4.969075 1.742550
v -0.280278 4.995368 1.806029
v -0.280278 4.969075 1.869507
v -0.280278 4.905596 2.029006
v -0.280278 4.205667 2.029006
v -0.280278 4.205667 1.806029
v -0.280278 4.205667 1.583051
v -0.280278 4.905596 1.583051
v -0.280278 5.271668 1.583051
v -0.280278 5.271668 1.806029
v -0.280278 5.271668 2.029006
v -0.189440 4.905596 2.029006
v -0.189440 4.205667 2.029006
v -0.189440 4.205667 1.806029
v -0.189440 4.205667 1.583051
v -0.189440 4.905596 1.583051
v -0.189440 5.271668 1.583051
v -0.189440 5.271668 1.806029
v -0.189440 5.271668 2.029006
v 0.220809 5.111109 1.806029
v 0.220809 5.050916 1.660710
v 0.220809 4.905596 1.600516
v 0.220809 4.760278 1.660710
v 0.220809 4.700085 1.806029
v 0.220809 4.760278 1.951348
v 0.220810 4.905596 2.011541
v 0.220810 5.050916 1.951348
v 0.374590 5.111109 1.806029
v 0.374590 5.050916 1.660710
v 0.374590 4.905596 1.600516
v 0.374590 4.760278 1.660710
v 0.374590 4.700085 1.806029
v 0.374590 4.760278 1.951348
v 0.374590 4.905596 2.011541
v 0.374590 5.050916 1.951348
v 0.395094 4.979247 1.806029
v 0.395094 4.957675 1.753950
v 0.395094 4.905596 1.732379
v 0.395094 4.853518 1.753950
v 0.395094 4.831947 1.806029
v 0.395094 4.853518 1.858107
v 0.395094 4.905596 1.879678
v 0.395094 4.957675 1.858107
v 0.395094 4.905596 1.806029
v 0.198275 4.905596 1.895800
v 0.198275 4.842119 1.869507
v 0.198275 4.815825 1.806029
v 0.198275 4.842119 1.742550
v 0.198275 4.905596 1.716257
v 0.198275 4.969075 1.742550
v 0.198275 4.995368 1.806029
v 0.198275 4.969075 1.869507
v 0.100144 4.905596 1.895800
v 0.100144 4.842119 1.869507
v 0.100144 4.815825 1.806029
v 0.100144 4.842119 1.742550
v 0.100144 4.905596 1.716257
v 0.100144 4.969075 1.742550
v 0.100144 4.995368 1.806029
v 0.100144 4.969075 1.869507
v 0.100144 4.905596 2.029006
v 0.100144 4.205667 2.029006
v 0.100144 4.205667 1.806029
v 0.100144 4.205667 1.583051
v 0.100144 4.905596 1.583051
v 0.100144 5.271668 1.583051
v 0.100144 5.271668 1.806029
v 0.100144 5.271668 2.029006
v 0.009306 4.905596 2.029006
v 0.009306 4.205667 2.029006
v 0.009306 4.205667 1.806029
v 0.009306 4.205667 1.583051
v 0.009306 4.905596 1.583051
v 0.009306 5.271668 1.583051
v 0.009306 5.271668 1.806029
v 0.009306 5.271668 2.029006
v -0.247049 0.288965 1.485669
v -0.247049 4.307817 1.485669
v -0.247049 0.288965 -1.485669
v -0.247049 4.307817 -1.485669
v 0.073297 0.288965 1.485669
v 0.073297 4.307817 1.485669
v 0.073297 0.288965 -1.485669
v 0.073297 4.307817 -1.485669
v -0.247049 2.298391 1.485669
v -0.247049 2.298391 -1.485669
v 0.073297 2.298391 -1.485669
v 0.073297 2.298391 1.485669
v -0.247049 0.288965 -0.000000
v -0.247049 4.307817 -0.000000
v 0.073297 0.288965 -0.000000
v 0.073297 4.307817 -0.000000
v 0.052498 2.298391 -0.000000
v -0.226250 2.298391 -0.000000
v -0.198376 4.106874 -0.148567
v -0.198376 4.106874 -1.337102
v -0.198376 2.499333 -1.337102
v 0.024624 4.106874 -1.337102
v 0.024624 2.499333 -1.337102
v -0.198376 2.499333 -0.148567
v 0.024624 4.106874 -0.148567
v 0.024624 2.499333 -0.148567
v -0.226250 2.499333 1.337102
v -0.226250 4.106874 1.337102
v -0.226250 4.106874 0.148567
v -0.226250 2.499333 0.148567
v -0.198376 2.097448 -1.337102
v -0.198376 0.489907 -1.337102
v 0.024624 2.097448 -1.337102
v 0.024624 0.489907 -1.337102
v 0.024624 0.489907 -0.148567
v -0.198376 2.097448 -0.148567
v -0.198376 0.489907 -0.148567
v 0.024624 2.097448 -0.148567
v -0.198376 0.489907 0.148567
v -0.198376 0.489907 1.337102
v 0.024624 2.097448 1.337102
v 0.024624 0.489907 1.337102
v -0.198376 2.097448 1.337102
v 0.024624 2.097448 0.148567
v 0.024624 0.489907 0.148567
v -0.198376 2.097448 0.148567
v 0.052498 4.106874 0.148567
v 0.052498 4.106874 1.337102
v 0.052498 2.499333 1.337102
v 0.052498 2.499333 0.148567
v -0.229545 3.912337 -0.292398
v -0.229545 3.912337 -1.193271
v -0.229545 2.693871 -1.193271
v 0.055793 3.912337 -1.193271
v 0.055793 2.693871 -1.193271
v -0.229545 2.693871 -0.292398
v 0.055793 3.912337 -0.292398
v 0.055793 2.693871 -0.292398
v -0.265213 2.693871 1.193271
v -0.265213 3.912337 1.193271
v -0.265213 3.912337 0.292398
v -0.265213 2.693871 0.292398
v -0.229545 1.902910 -1.193271
v -0.229545 0.684444 -1.193271
v 0.055793 1.902910 -1.193271
v 0.055793 0.684444 -1.193271
v 0.055793 0.684444 -0.292398
v -0.229545 1.902910 -0.292398
v -0.229545 0.684444 -0.292398
v 0.055793 1.902910 -0.292398
v -0.229545 0.684444 0.292398
v -0.229545 0.684444 1.193271
v 0.055793 1.902910 1.193271
v 0.055793 0.684444 1.193271
v -0.229545 1.902910 1.193271
v 0.055793 1.902910 0.292398
v 0.055793 0.684444 0.292398
v -0.229545 1.902910 0.292398
v 0.091461 3.912337 0.292398
v 0.091461 3.912337 1.193271
v 0.091461 2.693871 1.193271
v 0.091461 2.693871 0.292398
v -0.247049 0.012571 0.000000
v -0.247049 0.012571 2.208009
v -0.247049 2.757847 2.208009
v -0.247049 4.912924 2.208009
v -0.247049 4.912924 0.000000
v -0.247049 4.912924 -2.208009
v -0.247049 2.757847 -2.208009
v -0.247049 0.012571 -2.208009
v 0.073297 0.012571 -2.208009
v 0.073297 4.912924 -2.208009
v 0.073297 2.757847 -2.208009
v 0.073297 0.012571 0.000000
v 0.073297 4.912924 0.000000
v 0.073297 4.912924 2.208009
v 0.073297 2.757847 2.208009
v 0.073297 0.012571 2.208009
v -0.247049 5.551824 1.556752
v -0.247049 9.374803 1.556752
v -0.247049 5.551824 -1.556752
v -0.247049 9.374803 -1.556752
v 0.073297 5.551824 1.556752
v 0.073297 9.374803 1.556752
v 0.073297 5.551824 -1.556752
v 0.073297 9.374803 -1.556752
v -0.247049 7.463313 1.556752
v -0.247049 7.463313 -1.556752
v 0.073297 7.463313 -1.556752
v 0.073297 7.463313 1.556752
v -0.247049 5.551824 -0.000000
v -0.247049 9.374803 -0.000000
v 0.073297 5.551824 -0.000000
v 0.073297 9.374803 -0.000000
v 0.052498 7.463313 -0.000000
v -0.226250 7.463313 -0.000000
v -0.198376 9.183654 -0.155675
v -0.198376 9.183654 -1.401077
v -0.198376 7.654462 -1.401077
v 0.024624 9.183654 -1.401077
v 0.024624 7.654462 -1.401077
v -0.198376 7.654462 -0.155675
v 0.024624 9.183654 -0.155675
v 0.024624 7.654462 -0.155675
v -0.226250 7.654462 1.401077
v -0.226250 9.183654 1.401077
v -0.226250 9.183654 0.155675
v -0.226250 7.654462 0.155675
v -0.198376 7.272164 -1.401077
v -0.198376 5.742973 -1.401077
v 0.024624 7.272164 -1.401077
v 0.024624 5.742973 -1.401077
v 0.024624 5.742973 -0.155675
v -0.198376 7.272164 -0.155675
v -0.198376 5.742973 -0.155675
v 0.024624 7.272164 -0.155675
v -0.198376 5.742973 0.155675
v -0.198376 5.742973 1.401077
v 0.024624 7.272164 1.401077
v 0.024624 5.742973 1.401077
v -0.198376 7.272164 1.401077
v 0.024624 7.272164 0.155675
v 0.024624 5.742973 0.155675
v -0.198376 7.272164 0.155675
v 0.052498 9.183654 0.155675
v 0.052498 9.183654 1.401077
v 0.052498 7.654462 1.401077
v 0.052498 7.654462 0.155675
v -0.247049 5.072651 0.000000
v -0.247049 5.072651 2.208009
v -0.247049 7.817926 2.208009
v -0.247049 9.973004 2.208009
v -0.247049 9.973004 0.000000
v -0.247049 9.973004 -2.208009
v -0.247049 7.817926 -2.208009
v -0.247049 5.072651 -2.208009
v 0.073297 5.072651 -2.208009
v 0.073297 9.973004 -2.208009
v 0.073297 7.817926 -2.208009
v 0.073297 5.072651 0.000000
v 0.073297 9.973004 0.000000
v 0.073297 9.973004 2.208009
v 0.073297 7.817926 2.208009
v 0.073297 5.072651 2.208009
vn -0.9823 0.1871 0.0076
vn 1.0000 0.0000 0.0000
vn 0.9947 -0.1030 0.0000
vn -1.0000 0.0000 0.0000
vn -0.9684 0.0056 0.2495
vn 0.9503 0.0000 0.3113
vn 0.9823 -0.1871 -0.0076
vn -0.9823 -0.1871 0.0076
vn 0.9684 -0.0056 -0.2495
vn -0.9975 -0.0057 0.0698
vn 0.9874 0.1582 0.0000
vn 0.9874 -0.1582 0.0000
vn 0.9823 0.1871 0.0076
vn -0.9719 -0.2354 0.0000
vn -0.9503 0.0000 0.3113
vn -0.9684 -0.0056 -0.2495
vn 0.9719 -0.2354 0.0000
vn -0.9805 0.1964 0.0000
vn -0.9986 0.0517 -0.0078
vn -0.9903 0.0000 -0.1386
vn -0.9947 -0.1030 0.0000
vn 0.9652 0.0000 0.2615
vn -0.9773 0.0000 0.2118
vn -0.9684 0.0056 -0.2495
vn 0.9823 -0.1871 0.0076
vn -0.9719 0.2354 0.0000
vn 0.9719 0.2354 0.0000
vn 0.9684 0.0056 -0.2495
vn -0.9874 -0.1582 0.0000
vn 0.9503 0.0000 -0.3113
vn 0.9684 0.0056 0.2495
vn -0.9823 -0.1871 -0.0076
vn -0.9503 0.0000 -0.3113
vn -0.9652 0.0000 0.2615
vn 0.9975 -0.0057 0.0698
vn 0.9986 0.0517 -0.0078
vn 0.9903 0.0000 -0.1386
vn 0.9773 0.0000 0.2118
vn 0.9805 -0.1964 0.0000
vn -0.9805 -0.1964 0.0000
vn -0.9874 0.1582 0.0000
vn 0.9652 0.0000 -0.2615
vn -0.9652 0.0000 -0.2615
vn -0.9773 0.0000 -0.2118
vn 0.9773 0.0000 -0.2118
vn 0.9805 0.1964 0.0000
vn 0.0000 0.0000 -1.0000
vn 0.0000 0.0000 1.0000
vn 0.0000 -1.0000 0.0000
vn 0.0000 1.0000 0.0000
vn 0.0000 0.3827 -0.9239
vn 0.0000 0.3827 0.9239
vn 0.0000 -0.9239 0.3827
vn 0.0000 -0.3827 -0.9239
vn 0.0000 0.9239 -0.3827
vn 0.0000 0.9239 0.3827
vn 0.0000 -0.3827 0.9239
vn 0.0000 -0.9239 -0.3827
vn -0.9861 -0.1533 0.0635
vn -0.9861 -0.0635 -0.1533
vn -0.9861 0.1533 -0.0635
vn -0.9861 0.1533 0.0635
vn -0.9861 -0.0635 0.1533
vn -0.9861 -0.1533 -0.0635
vn -0.9861 0.0635 -0.1533
vn -0.9861 0.0635 0.1533
vn 0.9785 0.0789 -0.1905
vn 0.9785 0.0789 0.1905
vn 0.9785 -0.1905 0.0789
vn 0.9785 -0.0789 -0.1905
vn 0.9785 0.1905 -0.0789
vn 0.9785 0.1905 0.0789
vn 0.9785 -0.0789 0.1905
vn 0.9785 -0.1905 -0.0789
vn 0.9861 -0.1533 0.0635
vn 0.9861 -0.0635 -0.1533
vn 0.9861 0.1533 -0.0635
vn 0.9861 0.1533 0.0635
vn 0.9861 -0.0635 0.1533
vn 0.9861 -0.1533 -0.0635
vn 0.9861 0.0635 -0.1533
vn 0.9861 0.0635 0.1533
vn -0.9785 0.0789 -0.1905
vn -0.9785 0.0789 0.1905
vn -0.9785 -0.1905 0.0789
vn -0.9785 -0.0789 -0.1905
vn -0.9785 0.1905 -0.0789
vn -0.9785 0.1905 0.0789
vn -0.9785 -0.0789 0.1905
vn -0.9785 -0.1905 -0.0789
vn -0.9805 0.1963 0.0073
vn 0.9941 -0.1082 0.0000
vn -0.9711 0.0059 0.2387
vn 0.9544 0.0000 0.2984
vn 0.9805 -0.1963 -0.0073
vn -0.9805 -0.1963 0.0073
vn 0.9711 -0.0059 -0.2387
vn -0.9978 -0.0060 0.0667
vn 0.9805 0.1963 0.0073
vn -0.9691 -0.2468 0.0000
vn -0.9544 0.0000 0.2984
vn -0.9711 -0.0059 -0.2387
vn 0.9691 -0.2468 0.0000
vn -0.9985 0.0543 -0.0074
vn -0.9912 0.0000 -0.1324
vn -0.9941 -0.1082 0.0000
vn -0.9711 0.0059 -0.2387
vn 0.9805 -0.1963 0.0073
vn -0.9691 0.2468 0.0000
vn 0.9691 0.2468 0.0000
vn 0.9711 0.0059 -0.2387
vn 0.9544 0.0000 -0.2984
vn 0.9711 0.0059 0.2387
vn -0.9805 -0.1963 -0.0073
vn -0.9544 0.0000 -0.2984
vn 0.9978 -0.0060 0.0667
vn 0.9985 0.0543 -0.0074
vn 0.9912 0.0000 -0.1324
usemtl 4CAF50
s off
f 124//1 132//1 138//1 135//1
f 129//2 119//2 212//2 208//2
f 130//3 120//3 162//3 161//3
f 121//2 129//2 208//2 205//2
f 122//2 125//2 207//2 206//2
f 128//4 116//4 200//4 201//4
f 125//2 121//2 205//2 207//2
f 132//5 127//5 153//5 160//5
f 124//4 118//4 202//4 203//4
f 121//6 125//6 147//6 148//6
f 131//7 126//7 155//7 158//7
f 132//8 124//8 145//8 150//8
f 127//4 117//4 204//4 197//4
f 123//4 115//4 198//4 199//4
f 130//9 131//9 140//9 139//9
f 128//10 132//10 144//10 143//10
f 136//11 139//11 171//11 168//11
f 156//12 159//12 191//12 188//12
f 131//13 125//13 137//13 140//13
f 128//14 118//14 134//14 133//14
f 118//15 124//15 135//15 134//15
f 132//16 128//16 133//16 138//16
f 125//6 122//6 136//6 137//6
f 122//17 130//17 139//17 136//17
f 142//18 143//18 175//18 174//18
f 132//19 123//19 141//19 144//19
f 123//20 116//20 142//20 141//20
f 116//21 128//21 143//21 142//21
f 162//22 163//22 195//22 194//22
f 151//23 150//23 182//23 183//23
f 127//24 132//24 150//24 151//24
f 125//25 131//25 152//25 147//25
f 117//26 127//26 151//26 146//26
f 129//27 121//27 148//27 149//27
f 131//28 129//28 149//28 152//28
f 124//15 117//15 146//15 145//15
f 135//29 138//29 170//29 167//29
f 158//11 155//11 187//11 190//11
f 119//27 129//27 159//27 156//27
f 127//26 115//26 154//26 153//26
f 126//30 119//30 156//30 155//30
f 129//31 131//31 158//31 159//31
f 123//32 132//32 160//32 157//32
f 115//33 123//33 157//33 154//33
f 141//34 142//34 174//34 173//34
f 131//35 130//35 161//35 164//35
f 126//36 131//36 164//36 163//36
f 120//37 126//37 163//37 162//37
f 170//4 165//4 166//4 167//4
f 169//2 168//2 171//2 172//2
f 173//4 174//4 175//4 176//4
f 183//4 182//4 177//4 178//4
f 180//2 179//2 184//2 181//2
f 191//2 190//2 187//2 188//2
f 186//4 189//4 192//4 185//4
f 196//2 193//2 194//2 195//2
f 152//38 149//38 181//38 184//38
f 163//39 164//39 196//39 195//39
f 144//40 141//40 173//40 176//40
f 157//41 160//41 192//41 189//41
f 140//12 137//12 169//12 172//12
f 164//42 161//42 193//42 196//42
f 143//43 144//43 176//43 175//43
f 160//44 153//44 185//44 192//44
f 139//38 140//38 172//38 171//38
f 159//45 158//45 190//45 191//45
f 138//23 133//23 165//23 170//23
f 145//44 146//44 178//44 177//44
f 148//45 147//45 179//45 180//45
f 149//12 148//12 180//12 181//12
f 153//29 154//29 186//29 185//29
f 133//41 134//41 166//41 165//41
f 150//41 145//41 177//41 182//41
f 155//38 156//38 188//38 187//38
f 134//44 135//44 167//44 166//44
f 146//29 151//29 183//29 178//29
f 154//23 157//23 189//23 186//23
f 137//45 136//45 168//45 169//45
f 147//11 152//11 184//11 179//11
f 161//46 162//46 194//46 193//46
f 203//47 202//47 206//47 207//47
f 211//48 210//48 200//48 199//48
f 197//49 208//49 212//49 198//49
f 210//48 278//48 264//48 200//48
f 212//48 211//48 199//48 198//48
f 204//47 203//47 207//47 205//47
f 209//2 274//2 278//2 210//2
f 204//49 205//49 208//49 197//49
f 115//4 127//4 197//4 198//4
f 126//2 120//2 210//2 211//2
f 120//2 130//2 209//2 210//2
f 130//2 122//2 206//2 209//2
f 116//4 123//4 199//4 200//4
f 119//2 126//2 211//2 212//2
f 118//4 128//4 201//4 202//4
f 117//4 124//4 203//4 204//4
f 227//2 217//2 278//2 274//2
f 219//2 227//2 274//2 271//2
f 220//2 223//2 273//2 272//2
f 226//4 214//4 266//4 267//4
f 223//2 219//2 271//2 273//2
f 222//4 216//4 268//4 269//4
f 225//4 215//4 270//4 263//4
f 221//4 213//4 264//4 265//4
f 269//47 268//47 272//47 273//47
f 277//48 276//48 266//48 265//48
f 206//2 271//2 274//2 209//2
f 275//50 267//50 266//50 276//50
f 278//48 277//48 265//48 264//48
f 270//47 269//47 273//47 271//47
f 272//50 268//50 267//50 275//50
f 202//47 270//47 271//47 206//47
f 213//4 225//4 263//4 264//4
f 224//2 218//2 276//2 277//2
f 218//2 228//2 275//2 276//2
f 228//2 220//2 272//2 275//2
f 214//4 221//4 265//4 266//4
f 217//2 224//2 277//2 278//2
f 216//4 226//4 267//4 268//4
f 215//4 222//4 269//4 270//4
f 200//4 264//4 263//4 201//4
f 201//4 263//4 270//4 202//4
usemtl DD9944
f 2//51 3//51 11//51 10//51
f 7//52 8//52 16//52 15//52
f 5//53 6//53 14//53 13//53
f 3//54 4//54 12//54 11//54
f 1//55 2//55 10//55 9//55
f 8//56 1//56 9//56 16//56
f 6//57 7//57 15//57 14//57
f 4//58 5//58 13//58 12//58
f 13//59 14//59 22//59 21//59
f 11//60 12//60 20//60 19//60
f 9//61 10//61 18//61 17//61
f 16//62 9//62 17//62 24//62
f 14//63 15//63 23//63 22//63
f 12//64 13//64 21//64 20//64
f 10//65 11//65 19//65 18//65
f 15//66 16//66 24//66 23//66
f 23//4 24//4 25//4
f 21//4 22//4 25//4
f 19//4 20//4 25//4
f 17//4 18//4 25//4
f 24//4 17//4 25//4
f 22//4 23//4 25//4
f 20//4 21//4 25//4
f 18//4 19//4 25//4
f 3//67 2//67 31//67 30//67
f 8//68 7//68 26//68 33//68
f 6//69 5//69 28//69 27//69
f 4//70 3//70 30//70 29//70
f 2//71 1//71 32//71 31//71
f 1//72 8//72 33//72 32//72
f 7//73 6//73 27//73 26//73
f 5//74 4//74 29//74 28//74
f 29//54 30//54 38//54 37//54
f 27//53 28//53 36//53 35//53
f 33//52 26//52 34//52 41//52
f 31//55 32//55 40//55 39//55
f 30//51 31//51 39//51 38//51
f 28//58 29//58 37//58 36//58
f 26//57 27//57 35//57 34//57
f 32//56 33//56 41//56 40//56
f 35//4 36//4 44//4 43//4
f 41//4 34//4 42//4 49//4
f 38//4 39//4 47//4 46//4
f 36//4 37//4 45//4 44//4
f 34//4 35//4 43//4 42//4
f 40//4 41//4 49//4 48//4
f 39//4 40//4 48//4 47//4
f 37//4 38//4 46//4 45//4
f 47//50 48//50 56//50 55//50
f 45//47 46//47 54//47 53//47
f 43//49 44//49 52//49 51//49
f 49//48 42//48 50//48 57//48
f 46//47 47//47 55//47 54//47
f 44//49 45//49 53//49 52//49
f 42//48 43//48 51//48 50//48
f 48//50 49//50 57//50 56//50
f 59//51 67//51 68//51 60//51
f 64//52 72//52 73//52 65//52
f 62//53 70//53 71//53 63//53
f 60//54 68//54 69//54 61//54
f 58//55 66//55 67//55 59//55
f 65//56 73//56 66//56 58//56
f 63//57 71//57 72//57 64//57
f 61//58 69//58 70//58 62//58
f 70//75 78//75 79//75 71//75
f 68//76 76//76 77//76 69//76
f 66//77 74//77 75//77 67//77
f 73//78 81//78 74//78 66//78
f 71//79 79//79 80//79 72//79
f 69//80 77//80 78//80 70//80
f 67//81 75//81 76//81 68//81
f 72//82 80//82 81//82 73//82
f 80//2 82//2 81//2
f 78//2 82//2 79//2
f 76//2 82//2 77//2
f 74//2 82//2 75//2
f 81//2 82//2 74//2
f 79//2 82//2 80//2
f 77//2 82//2 78//2
f 75//2 82//2 76//2
f 60//83 87//83 88//83 59//83
f 65//84 90//84 83//84 64//84
f 63//85 84//85 85//85 62//85
f 61//86 86//86 87//86 60//86
f 59//87 88//87 89//87 58//87
f 58//88 89//88 90//88 65//88
f 64//89 83//89 84//89 63//89
f 62//90 85//90 86//90 61//90
f 86//54 94//54 95//54 87//54
f 84//53 92//53 93//53 85//53
f 90//52 98//52 91//52 83//52
f 88//55 96//55 97//55 89//55
f 87//51 95//51 96//51 88//51
f 85//58 93//58 94//58 86//58
f 83//57 91//57 92//57 84//57
f 89//56 97//56 98//56 90//56
f 92//2 100//2 101//2 93//2
f 98//2 106//2 99//2 91//2
f 95//2 103//2 104//2 96//2
f 93//2 101//2 102//2 94//2
f 91//2 99//2 100//2 92//2
f 97//2 105//2 106//2 98//2
f 96//2 104//2 105//2 97//2
f 94//2 102//2 103//2 95//2
f 104//50 112//50 113//50 105//50
f 102//47 110//47 111//47 103//47
f 100//49 108//49 109//49 101//49
f 106//48 114//48 107//48 99//48
f 103//47 111//47 112//47 104//47
f 101//49 109//49 110//49 102//49
f 99//48 107//48 108//48 100//48
f 105//50 113//50 114//50 106//50
usemtl FFFFFF
f 222//91 230//91 236//91 233//91
f 228//92 218//92 260//92 259//92
f 230//93 225//93 251//93 258//93
f 219//94 223//94 245//94 246//94
f 229//95 224//95 253//95 256//95
f 230//96 222//96 243//96 248//96
f 228//97 229//97 238//97 237//97
f 226//98 230//98 242//98 241//98
f 229//99 223//99 235//99 238//99
f 226//100 216//100 232//100 231//100
f 216//101 222//101 233//101 232//101
f 230//102 226//102 231//102 236//102
f 223//94 220//94 234//94 235//94
f 220//103 228//103 237//103 234//103
f 230//104 221//104 239//104 242//104
f 221//105 214//105 240//105 239//105
f 214//106 226//106 241//106 240//106
f 225//107 230//107 248//107 249//107
f 223//108 229//108 250//108 245//108
f 215//109 225//109 249//109 244//109
f 227//110 219//110 246//110 247//110
f 229//111 227//111 247//111 250//111
f 222//101 215//101 244//101 243//101
f 217//110 227//110 257//110 254//110
f 225//109 213//109 252//109 251//109
f 224//112 217//112 254//112 253//112
f 227//113 229//113 256//113 257//113
f 221//114 230//114 258//114 255//114
f 213//115 221//115 255//115 252//115
f 229//116 228//116 259//116 262//116
f 224//117 229//117 262//117 261//117
f 218//118 224//118 261//118 260//118
f 244//48 246//48 245//48 243//48
f 248//49 243//49 245//49 250//49
f 249//47 248//47 250//47 247//47
f 247//50 246//50 244//50 249//50
f 251//50 252//50 254//50 257//50
f 253//47 254//47 252//47 255//47
f 256//49 253//49 255//49 258//49
f 251//48 257//48 256//48 258//48
f 239//50 261//50 262//50 242//50
f 239//47 240//47 260//47 261//47
f 240//49 241//49 259//49 260//49
f 242//48 262//48 259//48 241//48
f 236//50 238//50 235//50 233//50
f 238//47 236//47 231//47 237//47
f 231//49 232//49 234//49 237//49
f 233//48 235//48 234//48 232//48
