mtllib materials.mtl
v -0.05999994 0.1999999 0.04000008
v 0.14 0.1999999 0.04000008
v 0.14 0.1999999 -0.03999984
v -0.05999994 0.1999999 -0.03999984
v -0.05999994 0.2799999 0.04000008
v -0.05999994 0.2799999 -0.03999984
v 0.14 0.2799999 -0.03999984
v 0.14 0.2799999 0.04000008
v -0.05999994 0.04000008 -0.04000008
v -0.05999994 0.04000008 0.03999984
v -0.14 0.2799999 -0.03999984
v -0.14 0.1999999 -0.03999984
v -0.14 0.2799999 0.04000008
v -0.14 0.1999999 0.04000008
v -0.1400001 0.04000008 -0.04000008
v -0.1400001 0.04000008 0.03999984
v 0.06000006 0.0400002 -0.04000008
v 0.06000006 0.0400002 0.03999984
v -0.1400001 -0.03999984 -0.04000008
v -0.05999994 -0.03999984 -0.04000008
v -0.1400001 -0.03999984 0.03999972
v -0.05999994 -0.03999984 0.03999972
v 0.06000006 -0.03999984 -0.04000008
v 0.06000006 -0.03999984 0.03999972
v 0.14 0.0400002 -0.04000008
v 0.14 0.0400002 0.03999984
v 0.14 -0.03999984 -0.04000008
v 0.06000006 -0.1999999 0.04000008
v 0.06000006 -0.1999999 -0.0399996
v 0.14 -0.03999984 0.03999972
v 0.14 -0.1999999 0.04000008
v 0.14 -0.1999999 -0.0399996
v -0.14 -0.1999997 0.04000008
v -0.14 -0.1999997 -0.0399996
v 0.14 -0.2799999 0.04000008
v 0.06000006 -0.2799999 0.04000008
v 0.14 -0.2799999 -0.0399996
v 0.06000006 -0.2799999 -0.0399996
v -0.14 -0.2799997 0.04000008
v -0.14 -0.2799997 -0.0399996
vn -2.384186E-07 -1 0
vn 2.384186E-07 1 0
vn 0 5.960464E-08 1
vn 0 -5.960464E-08 -1
vn 1 -1.094215E-08 1.266601E-07
vn 1 -1.788139E-07 -5.960464E-08
vn -1.554091E-08 -1.303847E-08 -1
vn 5.588063E-09 1 2.229299E-08
vn -9.892094E-10 1.303847E-08 1
vn -1 1.788139E-07 5.960464E-08
vn 2.446117E-09 1.500362E-06 -1
vn -1 7.506457E-07 -1.2666E-07
vn 2.083986E-08 -1.500362E-06 1
vn -1.003345E-06 1 -7.916261E-08
vn -9.193697E-09 -1.303847E-08 -1
vn -1 6.518992E-08 -1.266602E-07
vn 9.200598E-09 -1.477079E-06 1
vn -5.588078E-09 -1 1.408619E-08
vn -3.21811E-09 -1.30385E-08 -1
vn 9.934098E-09 -1 -6.208276E-10
vn 1.715379E-08 -1.477079E-06 1
vn -1.341105E-07 1 -1.49011E-07
vn 9.719733E-09 -1.303853E-08 -1
vn -1 7.332655E-09 -1.02448E-08
vn -1.064921E-08 -1.477077E-06 1
vn 1 8.707811E-08 1.266602E-07
vn -8.266542E-09 2.248211E-06 1
vn 1 -3.234742E-09 1.024477E-08
vn 2.44412E-09 -2.969985E-06 -1
vn 1.132488E-06 1 -2.607625E-08
vn 6.287179E-09 -3.352768E-08 1
vn 1 -3.849905E-07 4.060585E-07
vn -3.378956E-09 -1.303848E-08 -1
vn -2.384186E-07 -1 -1.597216E-07
vn -9.774072E-10 -3.352764E-08 1
vn -5.364417E-07 -1 -1.527366E-07
vn -2.725669E-09 -1.30385E-08 -1
vn -1 -3.317295E-08 -3.352798E-08
vt 0.06417295 -0.1503424
vt 0.07089968 -0.1315076
vt 0.06336575 -0.1288169
vt 0.05663903 -0.1476517
vt -0.06417295 -0.1503424
vt -0.05663903 -0.1476517
vt -0.06336576 -0.1288169
vt -0.07089968 -0.1315076
vt 0.2397065 -0.01431083
vt 0.2468619 -0.01073312
vt 0.2379176 0.007155419
vt 0.2307622 0.003577708
vt -0.2397065 -0.01431083
vt -0.2307622 0.003577709
vt -0.2379176 0.00715542
vt -0.2468619 -0.01073312
vt 0.211222 0.1047391
vt 0.2047121 0.109389
vt 0.1954123 0.09636927
vt 0.2019221 0.09171937
vt 0.2112219 0.1047392
vt 0.2158718 0.111249
vt 0.2093619 0.1158989
vt 0.204712 0.1093891
vt -0.2397065 -0.01431083
vt -0.2468619 -0.01073313
vt -0.2504396 -0.01788855
vt -0.2432842 -0.02146626
vt -0.05663905 -0.1476517
vt -0.06417298 -0.1503424
vt -0.06148228 -0.1578763
vt -0.05394835 -0.1551856
vt 0.2468619 -0.01073313
vt 0.2397065 -0.01431083
vt 0.2432842 -0.02146626
vt 0.2504396 -0.01788855
vt -0.2112219 0.1047392
vt -0.204712 0.1093891
vt -0.2093619 0.1158989
vt -0.2158718 0.111249
vt -0.2397066 -0.01431086
vt -0.2432843 -0.02146628
vt -0.2289735 -0.0286217
vt -0.2253958 -0.02146626
vt -0.204712 0.109389
vt -0.2112219 0.1047391
vt -0.201922 0.09171943
vt -0.1954122 0.09636932
vt 0.2432843 -0.02146628
vt 0.2397066 -0.01431085
vt 0.2253958 -0.02146626
vt 0.2289735 -0.02862169
vt -0.06417306 -0.1503422
vt -0.05663913 -0.1476515
vt -0.06067516 -0.1363506
vt -0.0682091 -0.1390413
vt -0.2253956 -0.02146624
vt -0.2289734 -0.02862168
vt -0.221818 -0.03219938
vt -0.2182403 -0.02504395
vt -0.1954123 0.09636928
vt -0.2019221 0.09171937
vt -0.1972722 0.08520953
vt -0.1907624 0.08985942
vt 0.2289735 -0.02862169
vt 0.2253958 -0.02146626
vt 0.2182404 -0.02504396
vt 0.2218181 -0.03219939
vt 0.06417295 -0.1503424
vt 0.05663903 -0.1476517
vt 0.05394834 -0.1551856
vt 0.06148225 -0.1578763
vt -0.2253956 -0.02146624
vt -0.2182403 -0.02504395
vt -0.2128737 -0.01431082
vt -0.2200291 -0.01073311
vt 0.05663903 -0.1476517
vt 0.06417295 -0.1503423
vt 0.06820899 -0.1390415
vt 0.06067507 -0.1363508
vt 0.2182404 -0.02504396
vt 0.2253958 -0.02146626
vt 0.2200292 -0.01073313
vt 0.2128738 -0.01431083
vt -0.06820904 -0.1390414
vt -0.06067511 -0.1363507
vt -0.0633658 -0.1288168
vt -0.07089973 -0.1315075
vt -0.2200291 -0.01073311
vt -0.2128737 -0.01431082
vt -0.209296 -0.007155406
vt -0.2164514 -0.003577695
vt -0.1907624 0.08985945
vt -0.1972722 0.08520956
vt -0.1879725 0.07218979
vt -0.1814626 0.07683968
vt 0.2128738 -0.01431083
vt 0.2200292 -0.01073312
vt 0.2164515 -0.003577707
vt 0.2092961 -0.007155415
vt 0.2019221 0.09171937
vt 0.1954123 0.09636927
vt 0.1907624 0.0898594
vt 0.1972722 0.0852095
vt 0.2128735 -0.0143108
vt 0.2092957 -0.007155383
vt 0.1949849 -0.01431082
vt 0.1985626 -0.02146623
vt 0.1972722 0.08520956
vt 0.1907624 0.08985945
vt 0.1814626 0.07683968
vt 0.1879725 0.07218979
vt -0.2092957 -0.007155363
vt -0.2128734 -0.01431078
vt -0.1985626 -0.02146621
vt -0.1949849 -0.0143108
vt -0.06067502 -0.136351
vt -0.06820893 -0.1390417
vt -0.06148219 -0.1578765
vt -0.05394828 -0.1551858
vt 0.1985628 -0.02146624
vt 0.1949852 -0.01431083
vt 0.1878297 -0.01788854
vt 0.1914074 -0.02504395
vt 0.1879725 0.0721897
vt 0.1814626 0.0768396
vt 0.1768127 0.07032973
vt 0.1833226 0.06567985
vt -0.1949851 -0.01431083
vt -0.1985628 -0.02146624
vt -0.1914074 -0.02504395
vt -0.1878297 -0.01788853
vt 0.06067506 -0.1363508
vt 0.06820897 -0.1390415
vt 0.07089966 -0.1315076
vt 0.06336575 -0.1288169
vt 0.1985628 -0.02146624
vt 0.1914074 -0.02504395
vt 0.2003517 -0.04293249
vt 0.2075072 -0.03935478
vt 0.06820893 -0.1390415
vt 0.06067503 -0.1363509
vt 0.05394829 -0.1551857
vt 0.0614822 -0.1578764
vt -0.1914074 -0.02504395
vt -0.1985628 -0.02146624
vt -0.2075071 -0.03935478
vt -0.2003517 -0.0429325
vt -0.1814626 0.07683969
vt -0.1879725 0.07218981
vt -0.1833225 0.06567993
vt -0.1768127 0.07032982
o group173262425
g mesh173262425
usemtl mat2
f 4/4/1 3/3/1 2/2/1 1/1/1
f 8/8/2 7/7/2 6/6/2 5/5/2
f 2/12/3 8/11/3 5/10/3 1/9/3
f 6/16/4 7/15/4 3/14/4 4/13/4
f 10/20/5 9/19/5 4/18/5 1/17/5
f 3/24/6 7/23/6 8/22/6 2/21/6
f 12/28/7 11/27/7 6/26/7 4/25/7
f 11/32/8 13/31/8 5/30/8 6/29/8
f 13/36/9 14/35/9 1/34/9 5/33/9
f 13/40/10 11/39/10 12/38/10 14/37/10
f 9/44/11 15/43/11 12/42/11 4/41/11
f 15/48/12 16/47/12 14/46/12 12/45/12
f 16/52/13 10/51/13 1/50/13 14/49/13
f 18/56/14 17/55/14 9/54/14 10/53/14
f 20/60/15 19/59/15 15/58/15 9/57/15
f 19/64/16 21/63/16 16/62/16 15/61/16
f 21/68/17 22/67/17 10/66/17 16/65/17
f 21/72/18 19/71/18 20/70/18 22/69/18
f 17/76/19 23/75/19 20/74/19 9/73/19
f 23/80/20 24/79/20 22/78/20 20/77/20
f 24/84/21 18/83/21 10/82/21 22/81/21
f 26/88/22 25/87/22 17/86/22 18/85/22
f 25/92/23 27/91/23 23/90/23 17/89/23
f 29/96/24 28/95/24 24/94/24 23/93/24
f 30/100/25 26/99/25 18/98/25 24/97/25
f 30/104/26 27/103/26 25/102/26 26/101/26
f 28/108/27 31/107/27 30/106/27 24/105/27
f 31/112/28 32/111/28 27/110/28 30/109/28
f 32/116/29 29/115/29 23/114/29 27/113/29
f 34/120/30 33/119/30 28/118/30 29/117/30
f 36/124/31 35/123/31 31/122/31 28/121/31
f 35/128/32 37/127/32 32/126/32 31/125/32
f 37/132/33 38/131/33 29/130/33 32/129/33
f 37/136/34 35/135/34 36/134/34 38/133/34
f 33/140/35 39/139/35 36/138/35 28/137/35
f 39/144/36 40/143/36 38/142/36 36/141/36
f 40/148/37 34/147/37 29/146/37 38/145/37
f 40/152/38 39/151/38 33/150/38 34/149/38
