# Blender v2.79 (sub 0) OBJ File: 'untitled.blend'
# www.blender.org
mtllib 77.mtl
o Plane
v 0.139602 -0.212159 -0.027795
v 0.338407 -0.212159 -0.027795
v 0.139602 -0.212159 -0.235484
v 0.338407 -0.212159 -0.235484
v 0.139602 -0.937280 -0.027795
v 0.338407 -0.937280 -0.027795
v 0.139602 -0.937280 -0.235484
v 0.338407 -0.937280 -0.235484
v 0.139602 -1.128439 -0.027795
v 0.338407 -1.128439 -0.027795
v 0.139602 -1.128439 -0.235484
v 0.338407 -1.128439 -0.235484
v 0.139602 -0.937280 0.343677
v 0.338407 -0.937280 0.343677
v 0.139602 -1.128439 0.343677
v 0.338407 -1.128439 0.343677
vt 0.000000 0.000000
vt 0.000000 0.000000
vt 0.000000 0.000000
vt 0.000000 0.000000
vt 0.000000 0.000000
vt 0.000000 0.000000
vt 0.000000 0.000000
vt 0.000000 0.000000
vt 0.000000 0.000000
vt 0.000000 0.000000
vt 0.000000 0.000000
vt 0.000000 0.000000
vt 0.000000 0.000000
vt 0.000000 0.000000
vt 0.000000 0.000000
vt 0.000000 0.000000
vn 0.0000 1.0000 0.0000
vn 0.0000 0.0000 -1.0000
vn -1.0000 0.0000 0.0000
vn 0.0000 0.0000 1.0000
vn 1.0000 0.0000 0.0000
vn 0.0000 -1.0000 0.0000
usemtl None
s off
f 1/1/1 2/2/1 4/3/1 3/4/1
f 8/5/2 12/6/2 11/7/2 7/8/2
f 3/4/3 7/8/3 5/9/3 1/1/3
f 4/3/2 8/5/2 7/8/2 3/4/2
f 1/1/4 5/9/4 6/10/4 2/2/4
f 2/2/5 6/10/5 8/5/5 4/3/5
f 9/11/6 11/7/6 12/6/6 10/12/6
f 6/10/5 14/13/5 16/14/5 10/12/5
f 6/10/5 10/12/5 12/6/5 8/5/5
f 7/8/3 11/7/3 9/11/3 5/9/3
f 13/15/4 15/16/4 16/14/4 14/13/4
f 5/9/1 13/15/1 14/13/1 6/10/1
f 9/11/3 15/16/3 13/15/3 5/9/3
f 10/12/6 16/14/6 15/16/6 9/11/6
