# Blender v2.79 (sub 0) OBJ File: 'number6.blend'
# www.blender.org
mtllib number0_.mtl
o Plane
v -0.500000 0.000000 1.000000
v 0.500000 0.000000 1.000000
v -0.500000 0.000000 -1.000000
v 0.500000 0.000000 -1.000000
v -0.500000 1.000000 1.000000
v 0.500000 1.000000 1.000000
v -0.500000 1.000000 -1.000000
v 0.500000 1.000000 -1.000000
v -0.500000 0.000000 -2.000000
v 0.500000 0.000000 -2.000000
v -0.500000 1.000000 -2.000000
v 0.500000 1.000000 -2.000000
v -0.500000 0.000000 2.000000
v 0.500000 0.000000 2.000000
v -0.500000 1.000000 2.000000
v 0.500000 1.000000 2.000000
v -0.500000 5.000000 -1.000000
v 0.500000 5.000000 -1.000000
v -0.500000 5.000000 -2.000000
v 0.500000 5.000000 -2.000000
v -0.500000 6.000000 -1.000000
v 0.500000 6.000000 -1.000000
v -0.500000 6.000000 -2.000000
v 0.500000 6.000000 -2.000000
v -0.500000 5.000000 2.000000
v 0.500000 5.000000 2.000000
v -0.500000 6.000000 2.000000
v 0.500000 6.000000 2.000000
v -0.500000 5.000000 1.000000
v 0.500000 5.000000 1.000000
v -0.500000 5.000000 2.000000
v 0.500000 5.000000 2.000000
vn 0.0000 -1.0000 0.0000
vn 0.0000 1.0000 0.0000
vn -1.0000 0.0000 0.0000
vn 1.0000 0.0000 0.0000
vn 0.0000 0.0000 -1.0000
vn 0.0000 0.0000 1.0000
usemtl None
s off
f 1//1 3//1 4//1 2//1
f 5//2 6//2 8//2 7//2
f 3//3 1//3 5//3 7//3
f 3//3 7//3 11//3 9//3
f 2//4 6//4 16//4 14//4
f 2//4 4//4 8//4 6//4
f 10//5 9//5 11//5 12//5
f 7//6 8//6 18//6 17//6
f 4//1 3//1 9//1 10//1
f 8//4 4//4 10//4 12//4
f 13//6 14//6 16//6 15//6
f 1//1 2//1 14//1 13//1
f 5//3 1//3 13//3 15//3
f 18//4 20//4 24//4 22//4
f 8//4 12//4 20//4 18//4
f 11//3 7//3 17//3 19//3
f 12//5 11//5 19//5 20//5
f 21//2 22//2 24//2 23//2
f 20//5 19//5 23//5 24//5
f 19//3 17//3 21//3 23//3
f 22//2 21//2 27//2 28//2
f 25//6 26//6 28//6 27//6
f 21//3 17//3 25//3 27//3
f 18//4 22//4 28//4 26//4
f 17//1 18//1 26//1 25//1
f 15//6 16//6 32//6 31//6
f 5//3 15//3 31//3 29//3
f 16//4 6//4 30//4 32//4
f 6//5 5//5 29//5 30//5
