mtllib materials.mtl
v -0.4202325 -0.04658377 -0.1373739
v 0.3304265 -0.0229404 -0.1558588
v 0.3300905 -0.01233053 -0.1559342
v -0.4205686 -0.03597403 -0.1374493
v -0.418283 -0.04595327 -0.05740008
v -0.4186191 -0.03534353 -0.05747551
v 0.33204 -0.01170003 -0.07596046
v 0.332376 -0.0223099 -0.075885
v -0.4243264 -0.04096234 0.1662499
v 0.3263325 -0.01731896 0.147765
v 0.3259965 -0.006709099 0.1476896
v -0.4246626 -0.03035259 0.1661745
v -0.422377 -0.04033184 0.2462237
v -0.4227131 -0.02972209 0.2461483
v 0.3279461 -0.006078601 0.2276633
v 0.328282 -0.01668847 0.2277388
v -0.262408 -0.048406 -0.1654156
v -0.2624081 -0.04840696 0.2658433
v -0.2624081 -0.03779137 0.2658433
v -0.262408 -0.03779054 -0.1654158
v -0.342408 -0.04840612 -0.1654156
v -0.342408 -0.03779066 -0.1654156
v -0.3424081 -0.03779137 0.2658433
v -0.3424081 -0.04840696 0.2658433
v -0.1210722 -0.04610622 -0.168667
v -0.1189013 -0.0512625 0.2625556
v -0.118934 -0.04064775 0.2626826
v -0.121105 -0.03549159 -0.1685401
v -0.2010709 -0.04635823 -0.1682673
v -0.2011037 -0.03574359 -0.1681402
v -0.1989327 -0.04089963 0.2630824
v -0.1988999 -0.05151439 0.2629553
v 0.05164292 -0.04616272 -0.1699494
v 0.04554486 -0.04228473 0.261249
v 0.04544327 -0.03167009 0.261152
v 0.05154127 -0.03554821 -0.1700464
v -0.02834547 -0.04693925 -0.1710736
v -0.02844712 -0.03632462 -0.1711705
v -0.03454512 -0.03244638 0.2600279
v -0.03444347 -0.04306114 0.2601248
v 0.240769 -0.04897809 -0.1734383
v 0.2366315 -0.04514289 0.2577838
v 0.2370865 -0.03453743 0.2576938
v 0.241224 -0.03837276 -0.1735283
v 0.1608461 -0.04555619 -0.1742355
v 0.1613011 -0.03495097 -0.1743255
v 0.1571636 -0.03111553 0.2568966
v 0.1567087 -0.04172099 0.2569865
vn -0.02436857 -0.007880607 -0.999672
vn 0.02436864 0.007881083 0.999672
vn 0.03165529 -0.9994736 0.007107207
vn -0.03165538 0.9994736 -0.007107123
vn -0.9992015 -0.03148 0.02460561
vn 0.999202 0.03146597 -0.02460563
vn -0.02436857 -0.007880607 -0.999672
vn 0.02436864 0.007881083 0.999672
vn 0.03165529 -0.9994736 0.007107207
vn -0.03165538 0.9994736 -0.007107123
vn -0.9992015 -0.03148 0.02460561
vn 0.999202 0.03146597 -0.02460563
vn 1 -3.022569E-06 2.518975E-07
vn -1 -1.250599E-08 -1.741602E-07
vn 6.934999E-07 -1 -2.256042E-06
vn -7.866297E-07 1 1.978008E-06
vn -1.017542E-06 -5.441808E-06 -1
vn 2.958719E-07 2.634332E-06 1
vn 0.9999826 0.003145633 -0.004996661
vn -0.9999826 -0.003148669 0.004996703
vn 0.003089344 -0.9999236 -0.01197185
vn -0.003089438 0.9999236 0.01197158
vn -0.005035184 0.01194851 -0.999916
vn 0.005034471 -0.01195132 0.9999159
vn 0.9998542 0.00970099 0.01405275
vn -0.9998542 -0.009704025 -0.01405264
vn 0.009576975 -0.9999125 0.009128297
vn -0.009577065 0.9999125 -0.009128576
vn 0.01413888 -0.009000094 -0.9998596
vn -0.01413957 0.008997278 0.9998596
vn 0.9990349 -0.04277706 0.009966031
vn -0.9990351 0.04277403 -0.009965926
vn -0.04285832 -0.9990453 0.008474139
vn 0.04285823 0.9990453 -0.008474418
vn 0.009592419 -0.008900724 -0.9999144
vn -0.00959326 0.00889795 0.9999144
vt -0.1003999 0.0413866
vt -0.06902049 0.1096452
vt -0.06998501 0.1100886
vt -0.1013644 0.04182998
vt 0.1003998 0.0413866
vt 0.1013644 0.04182999
vt 0.06998498 0.1100886
vt 0.06902047 0.1096452
vt 0.02781396 -0.01348155
vt 0.03543092 -0.01592734
vt 0.05839875 0.0556015
vt 0.05078179 0.05804729
vt -0.02781395 -0.01348154
vt -0.05078178 0.05804731
vt -0.05839875 0.05560152
vt -0.03543092 -0.01592734
vt -0.08722506 0.07143252
vt -0.08783293 0.07230277
vt -0.09439145 0.06772174
vt -0.09378358 0.06685148
vt 0.08722426 0.07143407
vt 0.09378284 0.06685312
vt 0.09439071 0.0677234
vt 0.08783212 0.07230435
vt -0.1012016 0.04050217
vt -0.06982221 0.1087607
vt -0.07078672 0.1092041
vt -0.1021661 0.04094556
vt 0.1012015 0.04050217
vt 0.102166 0.04094555
vt 0.07078668 0.1092041
vt 0.06982218 0.1087607
vt 0.05635978 -0.02384327
vt 0.06397674 -0.02628907
vt 0.08694457 0.04523977
vt 0.0793276 0.04768557
vt -0.05635977 -0.02384327
vt -0.0793276 0.04768559
vt -0.08694456 0.04523979
vt -0.06397673 -0.02628907
vt -0.1123094 0.05434931
vt -0.1129173 0.05521957
vt -0.1194758 0.05063853
vt -0.118868 0.04976827
vt 0.1123089 0.05435121
vt 0.1188675 0.04977027
vt 0.1194753 0.05064054
vt 0.1129167 0.05522149
vt 0.0850638 0.07242209
vt 0.1201568 0.04735568
vt 0.1207738 0.04821951
vt 0.0856808 0.07328591
vt -0.08506399 0.07242181
vt -0.085681 0.07328563
vt -0.1207739 0.04821915
vt -0.1201569 0.04735533
vt 0.02849231 -0.0008694416
vt 0.02580161 -0.008403381
vt 0.06641505 -0.02290823
vt 0.06910574 -0.0153743
vt -0.02849233 -0.0008694322
vt -0.06910578 -0.01537428
vt -0.06641509 -0.02290822
vt -0.02580164 -0.008403376
vt -0.09301345 0.05630551
vt -0.09396293 0.05678024
vt -0.09754064 0.04962482
vt -0.09659117 0.04915008
vt 0.09301338 0.05630537
vt 0.0965911 0.04914995
vt 0.09754059 0.0496247
vt 0.09396286 0.05678012
vt 0.08471649 0.07298458
vt 0.1196006 0.04762831
vt 0.1202248 0.048487
vt 0.08534063 0.07384326
vt -0.08471666 0.07298428
vt -0.08534081 0.07384295
vt -0.1202249 0.04848661
vt -0.1196007 0.04762792
vt 0.03189015 0.01315219
vt 0.02920132 0.005617586
vt 0.06981836 -0.008877188
vt 0.07250719 -0.00134259
vt -0.03189016 0.0131522
vt -0.07250722 -0.001342569
vt -0.06981839 -0.008877176
vt -0.02920135 0.005617592
vt -0.08752294 0.06871005
vt -0.08847583 0.06917788
vt -0.0920015 0.06199668
vt -0.09104861 0.06152884
vt 0.08752286 0.06870992
vt 0.09104852 0.06152871
vt 0.09200143 0.06199655
vt 0.08847576 0.06917776
vt 0.08611821 0.07051551
vt 0.1207362 0.04479713
vt 0.1213693 0.04564927
vt 0.08675127 0.07136764
vt -0.08611834 0.07051514
vt -0.08675141 0.07136728
vt -0.1213694 0.04564882
vt -0.1207363 0.04479668
vt 0.03974461 0.02972218
vt 0.03698935 0.02221161
vt 0.07747681 0.007358741
vt 0.08023207 0.0148693
vt -0.03974462 0.02972219
vt -0.0802321 0.01486932
vt -0.07747684 0.007358752
vt -0.03698938 0.02221162
vt -0.07838701 0.08509375
vt -0.07933883 0.08556376
vt -0.0828809 0.07839063
vt -0.08192907 0.07792061
vt 0.07838695 0.08509363
vt 0.08192901 0.0779205
vt 0.08288085 0.07839052
vt 0.07933877 0.08556365
vt 0.08340488 0.07728387
vt 0.1193287 0.05342341
vt 0.119916 0.05430769
vt 0.0839922 0.07816814
vt -0.08340499 0.07728352
vt -0.08399231 0.07816777
vt -0.1199161 0.05430724
vt -0.1193288 0.05342297
vt 0.04409222 0.04191353
vt 0.04130365 0.03441526
vt 0.08172478 0.01938281
vt 0.08451335 0.02688107
vt -0.04409223 0.04191354
vt -0.08451337 0.02688109
vt -0.08172481 0.01938283
vt -0.04130367 0.03441527
vt -0.06973398 0.1016834
vt -0.07066022 0.102202
vt -0.07456861 0.09522174
vt -0.07364237 0.09470313
vt 0.06973393 0.1016833
vt 0.07364232 0.09470302
vt 0.07456857 0.09522164
vt 0.07066018 0.1022019
o group542642967
g mesh542642967
usemtl mat19
f 20/52/13 19/51/13 18/50/13 17/49/13
f 24/56/14 23/55/14 22/54/14 21/53/14
f 18/60/15 24/59/15 21/58/15 17/57/15
f 22/64/16 23/63/16 19/62/16 20/61/16
f 21/68/17 22/67/17 20/66/17 17/65/17
f 19/72/18 23/71/18 24/70/18 18/69/18
o group1827257814
g mesh1827257814
usemtl mat19
f 28/76/19 27/75/19 26/74/19 25/73/19
f 32/80/20 31/79/20 30/78/20 29/77/20
f 26/84/21 32/83/21 29/82/21 25/81/21
f 30/88/22 31/87/22 27/86/22 28/85/22
f 29/92/23 30/91/23 28/90/23 25/89/23
f 27/96/24 31/95/24 32/94/24 26/93/24
o group846477578
g mesh846477578
usemtl mat19
f 36/100/25 35/99/25 34/98/25 33/97/25
f 40/104/26 39/103/26 38/102/26 37/101/26
f 34/108/27 40/107/27 37/106/27 33/105/27
f 38/112/28 39/111/28 35/110/28 36/109/28
f 37/116/29 38/115/29 36/114/29 33/113/29
f 35/120/30 39/119/30 40/118/30 34/117/30
o group92416908
g mesh92416908
usemtl mat19
f 44/124/31 43/123/31 42/122/31 41/121/31
f 48/128/32 47/127/32 46/126/32 45/125/32
f 42/132/33 48/131/33 45/130/33 41/129/33
f 46/136/34 47/135/34 43/134/34 44/133/34
f 45/140/35 46/139/35 44/138/35 41/137/35
f 43/144/36 47/143/36 48/142/36 42/141/36
o group189436233
g mesh189436233
usemtl mat18
f 4/4/1 3/3/1 2/2/1 1/1/1
f 8/8/2 7/7/2 6/6/2 5/5/2
f 2/12/3 8/11/3 5/10/3 1/9/3
f 6/16/4 7/15/4 3/14/4 4/13/4
f 5/20/5 6/19/5 4/18/5 1/17/5
f 3/24/6 7/23/6 8/22/6 2/21/6
f 12/28/7 11/27/7 10/26/7 9/25/7
f 16/32/8 15/31/8 14/30/8 13/29/8
f 10/36/9 16/35/9 13/34/9 9/33/9
f 14/40/10 15/39/10 11/38/10 12/37/10
f 13/44/11 14/43/11 12/42/11 9/41/11
f 11/48/12 15/47/12 16/46/12 10/45/12
